# xmcd
#
# Track frame offsets:
#	150
#	12987
#	28325
#	40357
#	52610
#	67747
#	80760
#	92450
#	105500
#	120337
#
# Disc length: 1777 seconds
#
# Revision: 3
# Processed by: cddbd v1.5.2PL0 Copyright (c) Steve Scherf et al.
# Submitted via: audiograbber 1.83.01
#
DISCID=6e06ef0a
DTITLE=Various Artist - R and B Crossover Oldies - Volume 2
DYEAR=1900
DGENRE=Oldies
TTITLE0=Impressions - It's All Right
TTITLE1=Dells - Wear It On Our Face
TTITLE2=Little Milton - We're Gonna Make It
TTITLE3=Betty Everett - There'll Come A Time 
TTITLE4=Lovelites - How Can I Tell My Mom And Dad
TTITLE5=Garland Green - Jealous Kind Of Fella
TTITLE6=Carl Carlton - Everlasting Love
TTITLE7=Fontella Bass - Rescue Me
TTITLE8=Radiants - Hold On
TTITLE9=Jim Gilstrap - Swing Your Daddy
EXTD=
EXTT0=
EXTT1=
EXTT2=
EXTT3=
EXTT4=
EXTT5=
EXTT6=
EXTT7=
EXTT8=
EXTT9=
PLAYORDER=
